<?xml version="1.0" encoding="UTF-8"?><svg id="Layer_1" xmlns="http://www.w3.org/2000/svg" xmlns:xlink="http://www.w3.org/1999/xlink" viewBox="0 0 48 48"><defs><style>.cls-1{fill:url(#linear-gradient);}.cls-2{fill:url(#linear-gradient-8);}.cls-3{fill:url(#linear-gradient-9);}.cls-4{fill:url(#linear-gradient-3);}.cls-5{fill:url(#linear-gradient-4);}.cls-6{fill:url(#linear-gradient-2);}.cls-7{fill:url(#linear-gradient-6);}.cls-8{fill:url(#linear-gradient-7);}.cls-9{fill:url(#linear-gradient-5);}</style><linearGradient id="linear-gradient" x1="2" y1="24" x2="14" y2="24" gradientTransform="matrix(1, 0, 0, 1, 0, 0)" gradientUnits="userSpaceOnUse"><stop offset="0" stop-color="#34ca82"/><stop offset="1" stop-color="#37a477"/></linearGradient><linearGradient id="linear-gradient-2" x1="4" y1="13" x2="12" y2="13" gradientTransform="matrix(1, 0, 0, 1, 0, 0)" gradientUnits="userSpaceOnUse"><stop offset="0" stop-color="#edf1f2"/><stop offset="1" stop-color="#c6cbcc"/></linearGradient><linearGradient id="linear-gradient-3" y1="35" y2="35" xlink:href="#linear-gradient-2"/><linearGradient id="linear-gradient-4" x1="15" y1="24" x2="27" y2="24" gradientTransform="matrix(1, 0, 0, 1, 0, 0)" gradientUnits="userSpaceOnUse"><stop offset="0" stop-color="#4793eb"/><stop offset="1" stop-color="#2367ec"/></linearGradient><linearGradient id="linear-gradient-5" x1="17" x2="25" xlink:href="#linear-gradient-2"/><linearGradient id="linear-gradient-6" x1="17" y1="35" x2="25" y2="35" xlink:href="#linear-gradient-2"/><linearGradient id="linear-gradient-7" x1="31.758" y1="25.357" x2="42.579" y2="22.143" gradientTransform="translate(7.411 -8.824) rotate(15)" gradientUnits="userSpaceOnUse"><stop offset="0" stop-color="#e85155"/><stop offset="1" stop-color="#c21d2c"/></linearGradient><linearGradient id="linear-gradient-8" x1="30.669" y1="14.137" x2="38.008" y2="12.101" xlink:href="#linear-gradient-2"/><linearGradient id="linear-gradient-9" x1="36.237" y1="35.446" x2="43.791" y2="33.303" xlink:href="#linear-gradient-2"/></defs><rect class="cls-1" x="2" y="6" width="12" height="36" rx="3" ry="3"/><path class="cls-6" d="M11,14H5c-.553,0-1-.448-1-1s.447-1,1-1h6c.553,0,1,.448,1,1s-.447,1-1,1Z"/><path class="cls-4" d="M11,36H5c-.553,0-1-.448-1-1s.447-1,1-1h6c.553,0,1,.448,1,1s-.447,1-1,1Z"/><rect class="cls-5" x="15" y="6" width="12" height="36" rx="3" ry="3"/><path class="cls-9" d="M24,14h-6c-.553,0-1-.448-1-1s.447-1,1-1h6c.553,0,1,.448,1,1s-.447,1-1,1Z"/><path class="cls-7" d="M24,36h-6c-.553,0-1-.448-1-1s.447-1,1-1h6c.553,0,1,.448,1,1s-.447,1-1,1Z"/><rect class="cls-8" x="31.219" y="5.735" width="12" height="36" rx="3" ry="3" transform="translate(-4.875 10.442) rotate(-15)"/><path class="cls-2" d="M37.529,13.299l-5.796,1.553c-.534,.143-1.082-.174-1.225-.707s.173-1.082,.707-1.225l5.796-1.553c.534-.143,1.082,.174,1.225,.707s-.173,1.082-.707,1.225Z"/><path class="cls-3" d="M43.223,34.549l-5.796,1.553c-.534,.143-1.082-.174-1.225-.707s.173-1.082,.707-1.225l5.796-1.553c.534-.143,1.082,.174,1.225,.707s-.173,1.082-.707,1.225Z"/></svg>